{
  "asset": {
    "version": "2.0",
    "generator": "openclaw-fullbody-avatar-generator"
  },
  "scene": 0,
  "scenes": [
    {
      "nodes": [
        0
      ]
    }
  ],
  "nodes": [
    {
      "name": "HologramAvatarFullBody",
      "children": [
        1,
        2,
        3,
        4,
        5
      ]
    },
    {
      "name": "Torso_Main",
      "mesh": 1,
      "translation": [
        0,
        -8,
        0
      ],
      "children": [
        6
      ]
    },
    {
      "name": "Arm_Left",
      "mesh": 2,
      "translation": [
        -62,
        28,
        0
      ],
      "children": [
        10
      ]
    },
    {
      "name": "Arm_Right",
      "mesh": 2,
      "translation": [
        62,
        28,
        0
      ],
      "children": [
        11
      ]
    },
    {
      "name": "Leg_Left",
      "mesh": 4,
      "translation": [
        -26,
        -122,
        0
      ],
      "children": [
        12
      ]
    },
    {
      "name": "Leg_Right",
      "mesh": 4,
      "translation": [
        26,
        -122,
        0
      ],
      "children": [
        13
      ]
    },
    {
      "name": "Head_Main",
      "mesh": 0,
      "translation": [
        0,
        96,
        0
      ],
      "children": [
        7,
        8,
        9
      ]
    },
    {
      "name": "Eye_Left",
      "mesh": 6,
      "translation": [
        -21,
        13,
        53
      ]
    },
    {
      "name": "Eye_Right",
      "mesh": 6,
      "translation": [
        21,
        13,
        53
      ]
    },
    {
      "name": "Mouth_Main",
      "mesh": 7,
      "translation": [
        0,
        -14,
        58
      ]
    },
    {
      "name": "Hand_Left",
      "mesh": 3,
      "translation": [
        0,
        -58,
        0
      ]
    },
    {
      "name": "Hand_Right",
      "mesh": 3,
      "translation": [
        0,
        -58,
        0
      ]
    },
    {
      "name": "Foot_Left",
      "mesh": 5,
      "translation": [
        0,
        -74,
        20
      ]
    },
    {
      "name": "Foot_Right",
      "mesh": 5,
      "translation": [
        0,
        -74,
        20
      ]
    }
  ],
  "meshes": [
    {
      "name": "HeadMesh",
      "primitives": [
        {
          "attributes": {
            "POSITION": 0,
            "NORMAL": 1
          },
          "indices": 2,
          "material": 0,
          "mode": 4
        }
      ]
    },
    {
      "name": "TorsoMesh",
      "primitives": [
        {
          "attributes": {
            "POSITION": 3,
            "NORMAL": 4
          },
          "indices": 5,
          "material": 0,
          "mode": 4
        }
      ]
    },
    {
      "name": "ArmMesh",
      "primitives": [
        {
          "attributes": {
            "POSITION": 6,
            "NORMAL": 7
          },
          "indices": 8,
          "material": 0,
          "mode": 4
        }
      ]
    },
    {
      "name": "HandMesh",
      "primitives": [
        {
          "attributes": {
            "POSITION": 9,
            "NORMAL": 10
          },
          "indices": 11,
          "material": 1,
          "mode": 4
        }
      ]
    },
    {
      "name": "LegMesh",
      "primitives": [
        {
          "attributes": {
            "POSITION": 12,
            "NORMAL": 13
          },
          "indices": 14,
          "material": 0,
          "mode": 4
        }
      ]
    },
    {
      "name": "FootMesh",
      "primitives": [
        {
          "attributes": {
            "POSITION": 15,
            "NORMAL": 16
          },
          "indices": 17,
          "material": 1,
          "mode": 4
        }
      ]
    },
    {
      "name": "EyeMesh",
      "primitives": [
        {
          "attributes": {
            "POSITION": 18,
            "NORMAL": 19
          },
          "indices": 20,
          "material": 2,
          "mode": 4
        }
      ]
    },
    {
      "name": "MouthMesh",
      "primitives": [
        {
          "attributes": {
            "POSITION": 21,
            "NORMAL": 22
          },
          "indices": 23,
          "material": 2,
          "mode": 4
        }
      ]
    }
  ],
  "materials": [
    {
      "name": "BodyMaterial",
      "pbrMetallicRoughness": {
        "baseColorFactor": [
          0.08,
          0.84,
          1,
          0.36
        ],
        "metallicFactor": 0,
        "roughnessFactor": 0.52
      },
      "emissiveFactor": [
        0.08,
        0.42,
        0.56
      ],
      "alphaMode": "BLEND",
      "doubleSided": true
    },
    {
      "name": "LimbAccentMaterial",
      "pbrMetallicRoughness": {
        "baseColorFactor": [
          0.18,
          0.95,
          1,
          0.5
        ],
        "metallicFactor": 0,
        "roughnessFactor": 0.4
      },
      "emissiveFactor": [
        0.16,
        0.48,
        0.58
      ],
      "alphaMode": "BLEND",
      "doubleSided": true
    },
    {
      "name": "FaceFeatureMaterial",
      "pbrMetallicRoughness": {
        "baseColorFactor": [
          0.96,
          0.99,
          1,
          0.92
        ],
        "metallicFactor": 0,
        "roughnessFactor": 0.24
      },
      "emissiveFactor": [
        0.24,
        0.44,
        0.5
      ],
      "alphaMode": "BLEND"
    }
  ],
  "accessors": [
    {
      "bufferView": 0,
      "byteOffset": 0,
      "componentType": 5126,
      "count": 625,
      "type": "VEC3",
      "min": [
        -52.47999954223633,
        -65.27999877929688,
        -44.79999923706055
      ],
      "max": [
        52.47999954223633,
        67.83999633789062,
        66.55999755859375
      ]
    },
    {
      "bufferView": 1,
      "byteOffset": 0,
      "componentType": 5126,
      "count": 625,
      "type": "VEC3"
    },
    {
      "bufferView": 2,
      "byteOffset": 0,
      "componentType": 5123,
      "count": 3456,
      "type": "SCALAR",
      "min": [
        0
      ],
      "max": [
        624
      ]
    },
    {
      "bufferView": 3,
      "byteOffset": 0,
      "componentType": 5126,
      "count": 441,
      "type": "VEC3",
      "min": [
        -42.91999816894531,
        -67.27999877929688,
        -29
      ],
      "max": [
        42.91999816894531,
        67.27999877929688,
        29
      ]
    },
    {
      "bufferView": 4,
      "byteOffset": 0,
      "componentType": 5126,
      "count": 441,
      "type": "VEC3"
    },
    {
      "bufferView": 5,
      "byteOffset": 0,
      "componentType": 5123,
      "count": 2400,
      "type": "SCALAR",
      "min": [
        0
      ],
      "max": [
        440
      ]
    },
    {
      "bufferView": 6,
      "byteOffset": 0,
      "componentType": 5126,
      "count": 225,
      "type": "VEC3",
      "min": [
        -9.239999771118164,
        -50.599998474121094,
        -9.008334159851074
      ],
      "max": [
        9.239999771118164,
        50.599998474121094,
        9.008334159851074
      ]
    },
    {
      "bufferView": 7,
      "byteOffset": 0,
      "componentType": 5126,
      "count": 225,
      "type": "VEC3"
    },
    {
      "bufferView": 8,
      "byteOffset": 0,
      "componentType": 5123,
      "count": 1176,
      "type": "SCALAR",
      "min": [
        0
      ],
      "max": [
        224
      ]
    },
    {
      "bufferView": 9,
      "byteOffset": 0,
      "componentType": 5126,
      "count": 169,
      "type": "VEC3",
      "min": [
        -10.920000076293945,
        -12.600000381469727,
        -10.359999656677246
      ],
      "max": [
        10.920000076293945,
        12.600000381469727,
        10.359999656677246
      ]
    },
    {
      "bufferView": 10,
      "byteOffset": 0,
      "componentType": 5126,
      "count": 169,
      "type": "VEC3"
    },
    {
      "bufferView": 11,
      "byteOffset": 0,
      "componentType": 5123,
      "count": 864,
      "type": "SCALAR",
      "min": [
        0
      ],
      "max": [
        168
      ]
    },
    {
      "bufferView": 12,
      "byteOffset": 0,
      "componentType": 5126,
      "count": 289,
      "type": "VEC3",
      "min": [
        -10.5600004196167,
        -60,
        -10.5600004196167
      ],
      "max": [
        10.5600004196167,
        60,
        10.5600004196167
      ]
    },
    {
      "bufferView": 13,
      "byteOffset": 0,
      "componentType": 5126,
      "count": 289,
      "type": "VEC3"
    },
    {
      "bufferView": 14,
      "byteOffset": 0,
      "componentType": 5123,
      "count": 1536,
      "type": "SCALAR",
      "min": [
        0
      ],
      "max": [
        288
      ]
    },
    {
      "bufferView": 15,
      "byteOffset": 0,
      "componentType": 5126,
      "count": 169,
      "type": "VEC3",
      "min": [
        -12.239999771118164,
        -5.78000020980835,
        -21.079999923706055
      ],
      "max": [
        12.239999771118164,
        5.78000020980835,
        21.079999923706055
      ]
    },
    {
      "bufferView": 16,
      "byteOffset": 0,
      "componentType": 5126,
      "count": 169,
      "type": "VEC3"
    },
    {
      "bufferView": 17,
      "byteOffset": 0,
      "componentType": 5123,
      "count": 864,
      "type": "SCALAR",
      "min": [
        0
      ],
      "max": [
        168
      ]
    },
    {
      "bufferView": 18,
      "byteOffset": 0,
      "componentType": 5126,
      "count": 169,
      "type": "VEC3",
      "min": [
        -12.100000381469727,
        -6.380000114440918,
        -3.8499999046325684
      ],
      "max": [
        12.100000381469727,
        6.380000114440918,
        3.8499999046325684
      ]
    },
    {
      "bufferView": 19,
      "byteOffset": 0,
      "componentType": 5126,
      "count": 169,
      "type": "VEC3"
    },
    {
      "bufferView": 20,
      "byteOffset": 0,
      "componentType": 5123,
      "count": 864,
      "type": "SCALAR",
      "min": [
        0
      ],
      "max": [
        168
      ]
    },
    {
      "bufferView": 21,
      "byteOffset": 0,
      "componentType": 5126,
      "count": 74,
      "type": "VEC3",
      "min": [
        -22.252412796020508,
        -24,
        0
      ],
      "max": [
        22.252412796020508,
        -6.368311882019043,
        2
      ]
    },
    {
      "bufferView": 22,
      "byteOffset": 0,
      "componentType": 5126,
      "count": 74,
      "type": "VEC3"
    },
    {
      "bufferView": 23,
      "byteOffset": 0,
      "componentType": 5123,
      "count": 216,
      "type": "SCALAR",
      "min": [
        0
      ],
      "max": [
        73
      ]
    }
  ],
  "bufferViews": [
    {
      "buffer": 0,
      "byteOffset": 0,
      "byteLength": 7500,
      "target": 34962
    },
    {
      "buffer": 0,
      "byteOffset": 7500,
      "byteLength": 7500,
      "target": 34962
    },
    {
      "buffer": 0,
      "byteOffset": 15000,
      "byteLength": 6912,
      "target": 34963
    },
    {
      "buffer": 0,
      "byteOffset": 21912,
      "byteLength": 5292,
      "target": 34962
    },
    {
      "buffer": 0,
      "byteOffset": 27204,
      "byteLength": 5292,
      "target": 34962
    },
    {
      "buffer": 0,
      "byteOffset": 32496,
      "byteLength": 4800,
      "target": 34963
    },
    {
      "buffer": 0,
      "byteOffset": 37296,
      "byteLength": 2700,
      "target": 34962
    },
    {
      "buffer": 0,
      "byteOffset": 39996,
      "byteLength": 2700,
      "target": 34962
    },
    {
      "buffer": 0,
      "byteOffset": 42696,
      "byteLength": 2352,
      "target": 34963
    },
    {
      "buffer": 0,
      "byteOffset": 45048,
      "byteLength": 2028,
      "target": 34962
    },
    {
      "buffer": 0,
      "byteOffset": 47076,
      "byteLength": 2028,
      "target": 34962
    },
    {
      "buffer": 0,
      "byteOffset": 49104,
      "byteLength": 1728,
      "target": 34963
    },
    {
      "buffer": 0,
      "byteOffset": 50832,
      "byteLength": 3468,
      "target": 34962
    },
    {
      "buffer": 0,
      "byteOffset": 54300,
      "byteLength": 3468,
      "target": 34962
    },
    {
      "buffer": 0,
      "byteOffset": 57768,
      "byteLength": 3072,
      "target": 34963
    },
    {
      "buffer": 0,
      "byteOffset": 60840,
      "byteLength": 2028,
      "target": 34962
    },
    {
      "buffer": 0,
      "byteOffset": 62868,
      "byteLength": 2028,
      "target": 34962
    },
    {
      "buffer": 0,
      "byteOffset": 64896,
      "byteLength": 1728,
      "target": 34963
    },
    {
      "buffer": 0,
      "byteOffset": 66624,
      "byteLength": 2028,
      "target": 34962
    },
    {
      "buffer": 0,
      "byteOffset": 68652,
      "byteLength": 2028,
      "target": 34962
    },
    {
      "buffer": 0,
      "byteOffset": 70680,
      "byteLength": 1728,
      "target": 34963
    },
    {
      "buffer": 0,
      "byteOffset": 72408,
      "byteLength": 888,
      "target": 34962
    },
    {
      "buffer": 0,
      "byteOffset": 73296,
      "byteLength": 888,
      "target": 34962
    },
    {
      "buffer": 0,
      "byteOffset": 74184,
      "byteLength": 432,
      "target": 34963
    }
  ],
  "buffers": [
    {
      "byteLength": 74616,
      "uri": "data:application/octet-stream;base64,"
    }
  ]
}
